HIERARCHY
ROOT Hips
{
    OFFSET 0.000000 0.000000 0.000000
    CHANNELS 6 Xposition Yposition Zposition Zrotation Xrotation Yrotation
    JOINT Chest
    {
        OFFSET -0.000000 0.071125 0.000000
        CHANNELS 3 Zrotation Xrotation Yrotation
        JOINT Chest2
        {
            OFFSET -0.000000 0.197688 0.000000
            CHANNELS 3 Zrotation Xrotation Yrotation
            JOINT Neck
            {
                OFFSET -0.000000 0.215036 0.000000
                CHANNELS 3 Zrotation Xrotation Yrotation
                JOINT Head
                {
                    OFFSET -0.000000 0.094110 0.017348
                    CHANNELS 3 Zrotation Xrotation Yrotation
                    End Site
                    {
                        OFFSET -0.000000 0.173475 0.000000
                    }
                }
            }
            JOINT LeftCollar
            {
                OFFSET 0.034300 0.180984 -0.001327
                CHANNELS 3 Zrotation Xrotation Yrotation
                JOINT LeftShoulder
                {
                    OFFSET 0.102919 0.000000 0.000000
                    CHANNELS 3 Zrotation Xrotation Yrotation
                    JOINT LeftElbow
                    {
                        OFFSET 0.264081 0.000000 0.000000
                        CHANNELS 3 Zrotation Xrotation Yrotation
                        JOINT LeftWrist
                        {
                            OFFSET 0.224503 0.000000 0.000000
                            CHANNELS 3 Zrotation Xrotation Yrotation
                            End Site
                            {
                                OFFSET 0.000000 -0.130107 0.000000
                            }
                        }
                    }
                }
            }
            JOINT RightCollar
            {
                OFFSET -0.035072 0.180984 -0.001327
                CHANNELS 3 Zrotation Xrotation Yrotation
                JOINT RightShoulder
                {
                    OFFSET -0.102919 0.000000 0.000000
                    CHANNELS 3 Zrotation Xrotation Yrotation
                    JOINT RightElbow
                    {
                        OFFSET -0.264081 0.000000 0.000000
                        CHANNELS 3 Zrotation Xrotation Yrotation
                        JOINT RightWrist
                        {
                            OFFSET -0.224503 0.000000 0.000000
                            CHANNELS 3 Zrotation Xrotation Yrotation
                            End Site
                            {
                                OFFSET -0.000000 -0.130107 0.000000
                            }
                        }
                    }
                }
            }
        }
    }
    JOINT LeftHip
    {
        OFFSET 0.086738 0.000000 0.000000
        CHANNELS 3 Zrotation Xrotation Yrotation
        JOINT LeftKnee
        {
            OFFSET -0.000000 -0.402353 0.000000
            CHANNELS 3 Zrotation Xrotation Yrotation
            JOINT LeftAnkle
            {
                OFFSET -0.000000 -0.330417 0.000000
                CHANNELS 3 Zrotation Xrotation Yrotation
                JOINT LeftToe
                {
                    OFFSET -0.000000 -0.056379 0.130107
                    CHANNELS 3 Zrotation Xrotation Yrotation
                    End Site
                    {
                        OFFSET -0.000000 0.000000 0.034695
                    }
                }
            }
        }
    }
    JOINT RightHip
    {
        OFFSET -0.086738 0.000000 0.000000
        CHANNELS 3 Zrotation Xrotation Yrotation
        JOINT RightKnee
        {
            OFFSET -0.000000 -0.402353 0.000000
            CHANNELS 3 Zrotation Xrotation Yrotation
            JOINT RightAnkle
            {
                OFFSET -0.000000 -0.330417 0.000000
                CHANNELS 3 Zrotation Xrotation Yrotation
                JOINT RightToe
                {
                    OFFSET -0.000000 -0.056379 0.130107
                    CHANNELS 3 Zrotation Xrotation Yrotation
                    End Site
                    {
                        OFFSET -0.000000 0.000000 0.034695
                    }
                }
            }
        }
    }
}
MOTION
Frames:    10
Frame Time:    0.016667
0.046123    0.811684    -0.197641    0.430621    -0.006288    173.552994    1.481884    -4.221623    0.874597    -1.368940    0.091063    0.274347    -2.513815    13.122924    0.546110    0.338257    0.732960    -0.107318    10.902694    -0.691729    -1.811004    -29.674526    -4.055095    8.003717    -0.136001    1.879296    0.350574    101.671448    0.560868    -1.937031    -13.915126    -0.164098    2.676080    29.780357    1.102897    7.242765    -0.308244    -2.541410    0.203981    -97.460922    1.732300    -2.427934    4.699028    -0.159011    0.482677    -4.450068    12.976388    1.574373    -0.575156    -12.661377    7.361362    0.000000    0.000000    0.000000    0.618570    -2.461489    0.363293    -0.190022    11.393835    2.138467    -0.501647    -8.587793    -3.818102    0.000000    0.000000    0.000000    
0.046189    0.811698    -0.197554    0.435356    0.020615    173.552963    1.470906    -4.213198    0.878964    -1.384986    0.071633    0.275858    -2.450518    13.146373    0.535708    0.280629    0.691474    -0.094932    10.905641    -0.685890    -1.820977    -29.658743    -4.055008    8.006798    -0.168625    1.892432    0.367712    101.720436    0.539506    -1.948333    -13.879274    -0.132652    2.638566    29.758337    1.028947    7.271426    -0.302148    -2.552825    0.306543    -96.729355    2.035658    -2.432311    4.704047    -0.120250    0.442344    -4.456268    12.929881    1.666041    -0.598041    -12.661942    7.319657    0.000000    0.000000    0.000000    0.624843    -2.453219    0.373574    -0.180880    11.426386    2.171959    -0.549368    -8.587379    -3.870896    0.000000    0.000000    0.000000    
0.046287    0.811696    -0.197444    0.443384    0.042412    173.568741    1.473636    -4.212898    0.876448    -1.419488    0.060898    0.274842    -2.417984    13.126223    0.543330    0.301634    0.683322    -0.081561    10.974957    -0.715984    -1.849884    -30.027575    -1.988204    8.391053    -0.090776    0.927316    -0.443523    101.534714    1.255901    -1.053818    -13.872517    -0.117904    2.616764    29.765245    0.962786    7.271222    -0.310444    -2.468857    0.224951    -97.431412    1.751119    -2.354527    4.716109    -0.090193    0.406437    -4.456296    12.876819    1.745374    -0.630629    -12.629263    7.263326    0.000000    0.000000    0.000000    0.636614    -2.432827    0.377049    -0.167574    11.417928    2.107170    -0.592868    -8.566756    -3.817845    0.000000    0.000000    0.000000    
0.046354    0.811710    -0.197306    0.440867    0.039025    173.582779    1.470178    -4.221748    0.869464    -1.444449    0.013509    0.271829    -2.469177    13.176496    0.568835    0.428574    0.587155    -0.083577    10.996896    -0.700100    -1.913319    -30.053146    -1.913150    8.477867    -0.069217    0.872336    -0.509667    101.464424    1.264209    -0.998959    -13.831322    -0.055411    2.621858    29.702431    0.943628    7.262650    -0.327829    -2.547491    0.305533    -97.031982    1.854120    -2.432686    4.718300    -0.106925    0.424130    -4.449702    12.882139    1.742832    -0.648966    -12.622132    7.238773    0.000000    0.000000    0.000000    0.633949    -2.448229    0.382214    -0.148595    11.418796    2.035789    -0.608469    -8.542318    -3.751896    0.000000    0.000000    0.000000    
0.046462    0.811690    -0.197254    0.444580    0.062157    173.624344    1.429964    -4.212698    0.870470    -1.415521    -0.016393    0.272272    -2.475290    13.240467    0.554701    0.480655    0.465426    -0.108761    10.975641    -0.717217    -1.958325    -30.019678    -1.897278    8.478092    -0.062824    0.896001    -0.514877    101.410728    1.242589    -1.019861    -13.828014    -0.022583    2.586186    29.682577    0.954010    7.248308    -0.315975    -2.509870    0.306195    -97.068169    1.910416    -2.391034    4.737230    -0.101823    0.419656    -4.459237    12.903452    1.651936    -0.648899    -12.629511    7.280851    0.000000    0.000000    0.000000    0.631586    -2.410275    0.402565    -0.118785    11.380620    1.966920    -0.582161    -8.533889    -3.734818    0.000000    0.000000    0.000000    
0.046550    0.811670    -0.197236    0.435724    0.056259    173.683289    1.393195    -4.242679    0.847196    -1.400224    -0.027011    0.264785    -2.482561    13.249619    0.532678    0.517121    0.381288    -0.138344    10.970511    -0.738441    -1.948361    -29.968935    -1.960951    8.441196    -0.087311    0.954705    -0.501571    101.524872    1.220633    -1.077511    -13.809342    -0.003970    2.510012    29.637447    0.945896    7.290255    -0.283208    -2.561066    0.219178    -97.636139    1.842675    -2.437564    4.735799    -0.122917    0.414066    -4.450740    12.912264    1.626517    -0.644770    -12.614427    7.249646    0.000000    0.000000    0.000000    0.621385    -2.401911    0.414293    -0.130164    11.357023    2.082198    -0.554347    -8.523018    -3.847374    0.000000    0.000000    0.000000    
0.046631    0.811690    -0.197178    0.437955    0.047153    173.730072    1.363539    -4.249236    0.838549    -1.376302    -0.075736    0.261780    -2.516466    13.112638    0.521701    0.609296    0.592946    -0.168668    10.960378    -0.729148    -1.961904    -29.949013    -1.920860    8.416393    -0.079277    0.907084    -0.497893    101.576996    1.187154    -1.027085    -13.807575    0.019384    2.479998    29.603817    0.938360    7.260012    -0.267921    -2.654426    0.271599    -97.520676    2.005496    -2.521982    4.743064    -0.153044    0.413729    -4.430413    12.929874    1.583884    -0.647321    -12.598648    7.235088    0.000000    0.000000    0.000000    0.601167    -2.393705    0.483385    -0.082283    11.347738    2.154644    -0.564794    -8.548433    -3.992626    0.000000    0.000000    0.000000    
0.046707    0.811727    -0.197133    0.439129    0.027989    173.773407    1.347991    -4.290128    0.836593    -1.377982    -0.089046    0.260953    -2.506419    13.106865    0.489298    0.617930    0.535117    -0.199849    10.966849    -0.737729    -1.982575    -29.959105    -1.479057    8.469235    -0.114104    0.676602    -0.653059    101.537682    1.313089    -0.808642    -13.809525    0.047542    2.454244    29.598000    0.899536    7.233360    -0.291046    -2.623393    0.247522    -97.430031    1.897009    -2.499612    4.751261    -0.189487    0.401525    -4.425044    12.943095    1.561280    -0.653123    -12.593646    7.247776    0.000000    0.000000    0.000000    0.604963    -2.400165    0.486878    -0.070969    11.331668    2.092201    -0.550611    -8.545300    -3.972700    0.000000    0.000000    0.000000    
0.046740    0.811776    -0.197104    0.429975    0.020479    173.806320    1.319555    -4.311715    0.834404    -1.372525    -0.107011    0.260303    -2.478903    13.039333    0.487032    0.578319    0.568029    -0.188556    10.965421    -0.738006    -1.981350    -29.845894    -1.887229    8.362793    -0.124463    0.879203    -0.481794    101.502571    1.180644    -0.997562    -13.839789    0.051237    2.450057    29.533398    0.581817    7.132658    -0.009807    -2.531666    0.454669    -97.351891    2.056395    -2.399500    4.747715    -0.206658    0.330023    -4.440617    12.941809    1.590493    -0.651418    -12.573503    7.268580    0.000000    0.000000    0.000000    0.597529    -2.394363    0.485460    -0.066077    11.296669    2.040540    -0.520713    -8.524267    -3.950460    0.000000    0.000000    0.000000    
0.046770    0.811791    -0.197128    0.424374    0.033116    173.855576    1.304546    -4.316521    0.817159    -1.384138    -0.119140    0.254598    -2.479825    12.999369    0.481956    0.593959    0.543717    -0.195142    10.962396    -0.740887    -1.979800    -29.771833    -1.900257    8.346124    -0.157705    0.868829    -0.494453    101.588463    1.171836    -0.987059    -13.858285    0.071613    2.429655    29.529726    0.519981    7.118160    0.010295    -2.516941    0.423070    -97.309387    1.970100    -2.391136    4.745208    -0.190328    0.303330    -4.440051    12.916224    1.604140    -0.663352    -12.560051    7.229977    0.000000    0.000000    0.000000    0.600381    -2.378289    0.453630    -0.078859    11.303842    2.055055    -0.526313    -8.538258    -3.991235    0.000000    0.000000    0.000000    
